#!OML:ASF H:\BreakDance\Project 1\Capture day 1\Session 1\Male.ASF
:FULLY-SPECIFIED
:DEGREES
1124
root -11.1336 17.5488 1.34782 -193.911 -58.2852 357.323
lowerback -5.4155 2.10473 2.92206
upperback -6.41987 2.81025 0.238498
thorax -3.47677 1.30844 -1.32141
lowerneck -19.1936 0.888431 -2.9205
upperneck -19.7306 1.29549 -0.512133
head -3.38909 0.529026 0.376464
rclavicle 2.25124e-013 1.10723e-013
rhumerus 72.9814 -8.21473 -72.9682
rradius 47.1289
rwrist -35.0797
rhand -47.2947 300.854
rfingers 7.12502
rthumb -19.9906 271.862
lclavicle 2.25124e-013 1.10723e-013
lhumerus 69.5632 15.7418 48.5125
lradius 40.922
lwrist 1.16824
lhand -56.656 -74.2517
lfingers 7.12502
lthumb -28.963 -46.4816
rfemur 44.4611 7.03465 11.2773
rtibia -3.18055e-014
rfoot 16.7364 -11.3116
rtoes -22.3889
lfemur -47.497 -5.88296 -9.37682
ltibia 33.4937
lfoot -3.5758 4.43571
ltoes -33.1784
1125
root -11.1159 17.4556 1.32682 -194.388 -57.5769 357.392
lowerback -5.51594 2.16804 3.19199
upperback -6.37439 2.88558 0.457364
thorax -3.36975 1.34079 -1.23869
lowerneck -19.1006 0.880675 -3.10492
upperneck -19.8433 1.31528 -0.452247
head -3.4485 0.552139 0.427852
rclavicle -2.68459e-013 -1.12313e-013
rhumerus 70.9549 -6.37889 -74.2789
rradius 48.4954
rwrist -36.7055
rhand -45.4987 302.817
rfingers 7.12502
rthumb -18.2635 273.654
lclavicle -2.68459e-013 -1.12313e-013
lhumerus 68.3061 14.3642 47.4365
lradius 41.5131
lwrist 1.25148
lhand -56.8179 -73.0229
lfingers 7.12502
lthumb -29.1176 -45.2794
rfemur 46.1221 6.34023 10.6749
rtibia -1.59028e-014
rfoot 17.4086 -12.6232
rtoes -23.1339
lfemur -48.3714 -5.92475 -8.50724
ltibia 31.9294
lfoot -3.98736 5.73895
ltoes -33.7979
1126
root -11.0975 17.357 1.30585 -194.944 -56.971 357.574
lowerback -5.63354 2.23181 3.52092
upperback -6.34247 2.9572 0.649673
thorax -3.2638 1.36813 -1.21553
lowerneck -19.0556 0.890015 -3.15968
upperneck -19.9342 1.32015 -0.522441
head -3.48962 0.559752 0.413526
rclavicle 4.77083e-014 -1.17283e-014
rhumerus 68.8465 -4.73215 -75.6793
rradius 49.8193
rwrist -37.8873
rhand -44.0784 304.586
rfingers 7.12502
rthumb -16.8967 275.301
lclavicle 4.77083e-014 -1.17283e-014
lhumerus 67.2578 12.8483 46.5121
lradius 41.749
lwrist 1.00028
lhand -56.9654 -72.6266
lfingers 7.12502
lthumb -29.2585 -44.9076
rfemur 47.7093 5.54831 10.0904
rtibia -5.08889e-014
rfoot 18.6141 -13.5066
rtoes -23.8908
lfemur -49.296 -5.29213 -8.20981
ltibia 30.6427
lfoot -4.69206 6.85834
ltoes -34.1794
1127
root -11.0796 17.255 1.28413 -195.575 -56.4441 357.843
lowerback -5.73141 2.29637 3.88567
upperback -6.31271 3.02784 0.825659
thorax -3.16871 1.39313 -1.22958
lowerneck -19.073 0.912043 -3.12284
upperneck -19.9933 1.31513 -0.69571
head -3.50719 0.55677 0.349071
rclavicle 1.14699e-013 7.31528e-014
rhumerus 66.7319 -3.25936 -77.1637
rradius 51.0195
rwrist -38.6616
rhand -43.1476 305.918
rfingers 7.12502
rthumb -16.0005 276.559
lclavicle 1.14699e-013 7.31528e-014
lhumerus 66.4607 11.2759 45.7994
lradius 41.6633
lwrist 0.674491
lhand -57.1434 -73.2523
lfingers 7.12502
lthumb -29.4284 -45.563
rfemur 49.2469 4.68737 9.51759
rtibia 9.22361e-014
rfoot 20.1511 -13.9065
rtoes -24.229
lfemur -50.301 -3.88896 -8.64656
ltibia 29.7313
lfoot -5.62348 7.6001
ltoes -33.8463
1128
root -11.0634 17.1514 1.26121 -196.247 -55.9826 358.128
lowerback -5.77157 2.3575 4.22567
upperback -6.27173 3.09616 1.00165
thorax -3.09504 1.41789 -1.23182
lowerneck -19.1385 0.931431 -3.07187
upperneck -20.0482 1.29935 -0.906491
head -3.51537 0.546831 0.26959
rclavicle 1.52269e-013 9.66093e-014
rhumerus 64.6878 -1.94484 -78.6904
rradius 52.0238
rwrist -39.0468
rhand -42.6198 306.82
rfingers 7.12502
rthumb -15.4922 277.421
lclavicle 1.52269e-013 9.66093e-014
lhumerus 65.9356 9.7556 45.4477
lradius 41.3358
lwrist 0.443049
lhand -57.3372 -75.232
lfingers 7.12502
lthumb -29.6134 -47.5754
rfemur 50.7606 3.78396 8.9245
rtibia -6.36111e-015
rfoot 21.8326 -13.6932
rtoes -24.5262
lfemur -51.4285 -1.69946 -9.94506
ltibia 29.2544
lfoot -6.67146 7.84349
ltoes -33.3495
1129
root -11.0501 17.0476 1.23704 -196.894 -55.5916 358.328
lowerback -5.71209 2.40699 4.45759
upperback -6.20956 3.15726 1.17903
thorax -3.05963 1.44315 -1.17659
lowerneck -19.2249 0.934794 -3.0775
upperneck -20.1412 1.27373 -1.08354
head -3.53586 0.534042 0.210795
rclavicle 1.98785e-014 2.22639e-014
rhumerus 62.7718 -0.780016 -80.2179
rradius 52.8191
rwrist -39.1481
rhand -42.338 307.481
rfingers 7.12502
rthumb -15.2207 278.061
lclavicle 1.98785e-014 2.22639e-014
lhumerus 65.6904 8.40279 45.658
lradius 40.8598
lwrist 0.333316
lhand -57.4538 -78.7283
lfingers 7.12502
lthumb -29.7247 -51.0916
rfemur 52.2744 2.85348 8.25416
rtibia 4.13472e-014
rfoot 23.511 -12.7221
rtoes -25.3914
lfemur -52.7432 1.20716 -12.1955
ltibia 29.2501
lfoot -7.68339 7.54146
ltoes -32.7229
1130
root -11.0408 16.9454 1.21142 -197.435 -55.2776 358.327
lowerback -5.51953 2.44037 4.4966
upperback -6.11913 3.21077 1.34129
thorax -3.07687 1.47177 -1.03566
lowerneck -19.2962 0.919543 -3.15521
upperneck -20.3296 1.24091 -1.17841
head -3.59636 0.519791 0.191341
rclavicle -9.99887e-014 -3.45885e-014
rhumerus 61.0076 0.254931 -81.6922
rradius 53.4481
rwrist -39.2604
rhand -42.3878 308.166
rfingers 7.12502
rthumb -15.2687 278.749
lclavicle -9.99887e-014 -3.45885e-014
lhumerus 65.6924 7.30755 46.5652
lradius 40.3355
lwrist 0.224143
lhand -57.4071 -83.6315
lfingers 7.12502
lthumb -29.6801 -55.9868
rfemur 53.8065 1.91915 7.43307
rtibia 1.27222e-014
rfoot 25.0264 -11.0472
rtoes -26.8048
lfemur -54.3104 4.59218 -15.3323
ltibia 29.7353
lfoot -8.49634 6.6724
ltoes -32.6907
1131
root -11.0353 16.8456 1.18507 -197.89 -55.0458 358.156
lowerback -5.19223 2.45895 4.36876
upperback -5.99907 3.25694 1.47712
thorax -3.14503 1.50258 -0.835543
lowerneck -19.3483 0.881759 -3.24695
upperneck -20.5921 1.18158 -1.21268
head -3.68865 0.490023 0.193859
rclavicle -1.1291e-013 -5.80451e-014
rhumerus 59.4137 1.13273 -83.1304
rradius 53.9635
rwrist -39.3976
rhand -42.4303 309.122
rfingers 7.12502
rthumb -15.3097 279.709
lclavicle -1.1291e-013 -5.80451e-014
lhumerus 65.8521 6.50381 48.1796
lradius 39.9194
lwrist -0.0773179
lhand -57.1553 -89.3917
lfingers 7.12502
lthumb -29.4397 -61.7044
rfemur 55.3578 0.974082 6.47346
rtibia 3.81667e-014
rfoot 26.3162 -8.65086
rtoes -29.018
lfemur -56.1844 8.072 -19.0663
ltibia 30.7387
lfoot -8.97036 5.55145
ltoes -33.3897
1132
root -11.0328 16.7479 1.15859 -198.32 -54.8832 357.905
lowerback -4.74583 2.47434 4.15428
upperback -5.86052 3.30675 1.57252
thorax -3.26277 1.53754 -0.634598
lowerneck -19.3555 0.822635 -3.33358
upperneck -20.9252 1.09669 -1.16689
head -3.81563 0.443725 0.221935
rclavicle 7.53394e-014 -7.15625e-015
rhumerus 57.9778 1.82111 -84.5403
rradius 54.407
rwrist -39.5675
rhand -42.2835 310.525
rfingers 7.12502
rthumb -15.1682 281.101
lclavicle 7.53394e-014 -7.15625e-015
lhumerus 66.0305 5.93583 50.3157
lradius 39.8013
lwrist -0.652323
lhand -56.7208 -264.94
lfingers 7.12502
lthumb -29.0249 -67.3002
rfemur 56.9144 0.00961425 5.432
rtibia 3.49861e-014
rfoot 27.405 -5.60464
rtoes -31.8058
lfemur -58.3442 11.2592 -23.0041
ltibia 32.2972
lfoot -8.9552 4.39017
ltoes -34.316
1133
root -11.0322 16.6506 1.13204 -198.799 -54.7711 357.68
lowerback -4.20755 2.5001 3.94674
upperback -5.72562 3.3737 1.61182
thorax -3.43265 1.57922 -0.499988
lowerneck -19.2945 0.741558 -3.38417
upperneck -21.2964 0.982603 -1.03175
head -3.9684 0.376798 0.273928
rclavicle -1.32987e-013 -7.35503e-014
rhumerus 56.66 2.29627 -85.9117
rradius 54.8462
rwrist -39.7754
rhand -41.8532 312.111
rfingers 7.12502
rthumb -14.7537 282.656
lclavicle -1.32987e-013 -7.35503e-014
lhumerus 66.0747 5.47614 52.6018
lradius 40.1234
lwrist -1.38671
lhand -56.1883 -260.228
lfingers 7.12502
lthumb -28.5162 -71.9257
rfemur 58.4644 -0.986586 4.37969
rtibia -8.90555e-014
rfoot 28.2981 -2.22028
rtoes -34.6373
lfemur -60.7244 13.8995 -26.792
ltibia 34.4712
lfoot -8.4927 3.20512
ltoes -35.8794
1134
root -11.0324 16.5509 1.10484 -199.397 -54.6965 357.587
lowerback -3.6319 2.54182 3.82802
upperback -5.60461 3.46045 1.58994
thorax -3.63039 1.6258 -0.480385
lowerneck -19.1618 0.629209 -3.38997
upperneck -21.6563 0.827441 -0.807081
head -4.12824 0.282584 0.348851
rclavicle -1.82484e-013 -6.87795e-014
rhumerus 55.4446 2.55728 -87.2104
rradius 55.3169
rwrist -39.984
rhand -41.0346 313.418
rfingers 7.12502
rthumb -13.965 283.907
lclavicle -1.82484e-013 -6.87795e-014
lhumerus 65.8905 5.00318 54.6336
lradius 40.9084
lwrist -2.07752
lhand -55.6495 -256.989
lfingers 7.12502
lthumb -28.0012 -75.0799
rfemur 53.0562 -2.10248 3.27407
rtibia 13.2346
rfoot 22.8253 0.821574
rtoes -36.929
lfemur -63.2487 15.8929 -30.1726
ltibia 37.3045
lfoot -7.67928 1.95523
ltoes -38.0468
1135
root -11.0323 16.447 1.07551 -200.167 -54.6517 357.705
lowerback -3.08808 2.59734 3.84015
upperback -5.49664 3.56075 1.5161
thorax -3.8141 1.673 -0.586597
lowerneck -18.9834 0.483983 -3.37887
upperneck -21.959 0.637785 -0.49606
head -4.27327 0.167224 0.451061
rclavicle 3.00165e-014 1.11319e-014
rhumerus 54.342 2.62946 -88.3778
rradius 55.8417
rwrist -40.189
rhand -40.1007 314.464
rfingers 7.12502
rthumb -13.0648 284.894
lclavicle 3.00165e-014 1.11319e-014
lhumerus 65.4829 4.43528 56.1071
lradius 42.0282
lwrist -2.54914
lhand -55.1595 -255.239
lfingers 7.12502
lthumb -27.5327 -76.7542
rfemur 49.6575 -3.28447 2.29342
rtibia 22.5908
rfoot 19.1911 3.4735
rtoes -38.5362
lfemur -65.8631 17.2856 -33.0536
ltibia 40.8131
lfoot -6.66227 0.502024
ltoes -40.3094
1136
root -11.0309 16.3376 1.04254 -201.153 -54.6225 358.102
lowerback -2.63379 2.66421 3.98623
upperback -5.40004 3.67057 1.42905
thorax -3.95095 1.71961 -0.777485
lowerneck -18.288 0.306261 -3.38338
upperneck -22.8747 0.401181 -0.125019
head -4.15947 0.0310266 0.5687
rclavicle -1.17879e-013 -3.79679e-014
rhumerus 53.3664 2.55449 -89.3341
rradius 56.4242
rwrist -40.3712
rhand -39.1939 314.871
rfingers 7.12502
rthumb -12.1906 285.246
lclavicle -1.17879e-013 -3.79679e-014
lhumerus 64.923 3.74075 56.9037
lradius 43.2769
lwrist -2.70834
lhand -54.7249 -254.52
lfingers 7.12502
lthumb -27.117 -77.4075
rfemur 47.5072 -4.65268 1.29927
rtibia 29.5387
rfoot 16.6632 5.76359
rtoes -40.0657
lfemur -68.5242 18.1716 -35.4082
ltibia 44.9555
lfoot -5.54706 -1.20555
ltoes -42.88
1137
root -11.0279 16.2217 1.00487 -202.38 -54.5882 358.81
lowerback -2.29131 2.74342 4.22634
upperback -5.31333 3.79266 1.38325
thorax -4.03155 1.76969 -0.973384
lowerneck -18.1433 0.0608238 -3.46287
upperneck -22.8806 0.106959 0.247532
head -4.17537 -0.131464 0.696264
rclavicle -7.31528e-014 -1.59028e-014
rhumerus 52.5261 2.3782 -90.0033
rradius 57.0568
rwrist -40.4947
rhand -38.525 314.523
rfingers 7.12502
rthumb -11.5456 284.861
lclavicle -7.31528e-014 -1.59028e-014
lhumerus 64.3096 2.92655 57.0877
lradius 44.4613
lwrist -2.54173
lhand -54.3386 -254.28
lfingers 7.12502
lthumb -26.7474 -77.5906
rfemur 45.9175 -6.22594 0.274927
rtibia 35.4236
rfoot 14.5062 7.62489
rtoes -41.5783
lfemur -71.1899 18.6554 -37.2557
ltibia 49.651
lfoot -4.49423 -3.10441
ltoes -45.4322
